Coordinates
version=1
nRows=19
nColumns=24
inDegrees=yes

Units are S.I. units (second, meters, Newtons, ...)
Angles are in degrees.

endheader
time	pelvis_tilt	pelvis_list	pelvis_rotation	pelvis_tx	pelvis_ty	pelvis_tz	hip_flexion_r	hip_adduction_r	hip_rotation_r	knee_angle_r	ankle_angle_r	subtalar_angle_r	mtp_angle_r	hip_flexion_l	hip_adduction_l	hip_rotation_l	knee_angle_l	ankle_angle_l	subtalar_angle_l	mtp_angle_l	lumbar_extension	lumbar_bending	lumbar_rotation
      0.73500000	     22.42236890	     -2.82542943	     -2.01881613	     -0.22076982	      0.97733231	     -0.02168406	     -2.11371822	     -1.98787852	    -17.73504720	    -25.32117795	     10.22709102	      0.77494345	     33.32376163	    -35.07292583	      3.90924381	    -17.27500199	      4.42839327	     10.97669163	     20.73927217	      9.03107975	    -29.93129211	     -0.32206283	     -1.16422263
      0.74000000	     22.63718986	     -3.02786637	     -1.68530565	     -0.21500827	      0.97705141	     -0.02165915	     -2.58881826	     -1.48452567	    -18.47080178	    -22.94951641	      9.87584845	      1.37380053	     33.58493379	    -35.72767666	      3.56250991	    -17.41382749	      4.50797415	     11.21260719	     21.18477462	      8.99778687	    -30.15428148	      0.01769989	     -1.36140837
      0.74500000	     22.83616586	     -3.21133589	     -1.37574261	     -0.20922142	      0.97668707	     -0.02156350	     -3.04673749	     -0.98518223	    -19.18932856	    -20.59414300	      9.48088068	      2.06233170	     33.87678540	    -36.35653512	      3.23683275	    -17.54430468	      4.56910177	     11.45768671	     21.58947728	      8.96005310	    -30.35445243	      0.32517662	     -1.54128352
      0.75000000	     23.02319966	     -3.37978610	     -1.08709747	     -0.20340599	      0.97623816	     -0.02138378	     -3.49192687	     -0.48387415	    -19.88990944	    -18.25947685	      9.04131632	      2.85926825	     34.18593427	    -36.96924082	      2.92902216	    -17.67046230	      4.62089063	     11.71795699	     21.94162583	      8.92460366	    -30.53633829	      0.60286636	     -1.71653829
      0.75500000	     23.19455473	     -3.53053006	     -0.81967590	     -0.19756975	      0.97571595	     -0.02113902	     -3.91977387	      0.01379696	    -20.56192512	    -15.95713689	      8.56362760	      3.72739454	     34.49363207	    -37.55395600	      2.63978633	    -17.78222449	      4.64843731	     11.98071603	     22.24342711	      8.89636512	    -30.69477562	      0.85358547	     -1.87447020
      0.76000000	     23.34276279	     -3.65522129	     -0.58153463	     -0.19172588	      0.97510869	     -0.02079784	     -4.31369115	      0.49744889	    -21.18898419	    -13.70783372	      8.03437449	      4.67058930	     34.81989722	    -38.11125267	      2.38258168	    -17.87905131	      4.67009287	     12.24423671	     22.51547043	      8.86779687	    -30.82675142	      1.05821502	     -2.03638257
      0.76500000	     23.46362272	     -3.75887441	     -0.37498228	     -0.18586157	      0.97441439	     -0.02038612	     -4.66538912	      0.96405737	    -21.76529849	    -11.53794306	      7.46590689	      5.67302462	     35.14527314	    -38.63319435	      2.15554660	    -17.95931287	      4.67664872	     12.51269648	     22.72649784	      8.84624897	    -30.92548077	      1.22825232	     -2.17691081
      0.77000000	     23.58025707	     -3.84072536	     -0.19481883	     -0.18001302	      0.97365079	     -0.01990168	     -4.99638636	      1.41167511	    -22.28896773	     -9.45864171	      6.87395445	      6.71737254	     35.46344336	    -39.14724909	      1.95823111	    -18.01743345	      4.67614773	     12.77770959	     22.88663838	      8.83130940	    -31.02085520	      1.36047578	     -2.31182859
      0.77500000	     23.64327148	     -3.87185156	     -0.05166740	     -0.17415965	      0.97280343	     -0.01935896	     -5.22898593	      1.78671684	    -22.81965355	     -7.53980994	      6.24552897	      7.90307633	     36.08233339	    -39.57320409	      1.81559407	    -18.09582686	      4.61199674	     13.02518481	     23.10722616	      8.78263714	    -31.05843798	      1.42643491	     -2.44102568
      0.78000000	     23.70238124	     -3.93200165	      0.06061780	     -0.16836820	      0.97188955	     -0.01872015	     -5.46135199	      2.21350020	    -23.12827346	     -5.67146575	      5.61056474	      8.80160963	     36.24210259	    -40.02903417	      1.66902763	    -18.05352924	      4.61878065	     13.31524696	     22.99830521	      8.80017586	    -31.09830422	      1.50369938	     -2.52275432
      0.78500000	     23.74620691	     -3.95368424	      0.16523551	     -0.16257688	      0.97094714	     -0.01806708	     -5.64603322	      2.57763187	    -23.46713726	     -3.96705580	      4.99892682	      9.84768628	     36.40437755	    -40.44685012	      1.55302134	    -18.01239967	      4.58381607	     13.56155040	     22.94047006	      8.83396058	    -31.12285618	      1.53863713	     -2.62302896
      0.79000000	     23.76533694	     -3.96577123	      0.23826740	     -0.15680646	      0.96995414	     -0.01737859	     -5.77718968	      2.91420784	    -23.71950896	     -2.40949358	      4.38656047	     10.83451570	     36.50712668	    -40.83081240	      1.46215280	    -17.95884090	      4.53211743	     13.80733888	     22.82168066	      8.88678726	    -31.12400995	      1.55426466	     -2.69533119
      0.79500000	     23.77743584	     -3.96906573	      0.31032305	     -0.15105078	      0.96895275	     -0.01667615	     -5.88768270	      3.22869555	    -23.93371863	     -0.98114664	      3.79791129	     11.80022175	     36.57476036	    -41.20184148	      1.37542314	    -17.86450369	      4.47360070	     14.03424461	     22.65915229	      8.96098086	    -31.11971274	      1.55888881	     -2.77624774
      0.80000000	     23.78556911	     -3.97124119	      0.36898695	     -0.14530231	      0.96793373	     -0.01596434	     -5.97480422	      3.52209264	    -24.07684733	      0.29832603	      3.23100168	     12.68503240	     36.59003627	    -41.56514166	      1.29680349	    -17.76082143	      4.40672698	     14.25260264	     22.45349636	      9.05504973	    -31.11242249	      1.55970379	     -2.84080738
      0.80500000	     23.79398054	     -3.96769925	      0.42923412	     -0.13956102	      0.96692504	     -0.01527956	     -6.04489773	      3.78726604	    -24.18999224	      1.42526288	      2.70873537	     13.52631439	     36.56233480	    -41.92416098	      1.22053359	    -17.61694267	      4.33143140	     14.45018726	     22.21073138	      9.18348370	    -31.10648346	      1.56045309	     -2.90354399
      0.81000000	     23.79569457	     -3.97404769	      0.48733115	     -0.13379669	      0.96592518	     -0.01459283	     -6.09604801	      4.04264729	    -24.25267761	      2.40402323	      2.20991684	     14.27553162	     36.48238613	    -42.27019607	      1.13454282	    -17.47685688	      4.24216039	     14.63823023	     21.93549292	      9.33922779	    -31.09135687	      1.57209031	     -2.96183360
      0.81500000	     23.80327456	     -3.98059036	      0.55141087	     -0.12803245	      0.96494572	     -0.01394797	     -6.13750391	      4.27408468	    -24.28741921	      3.22589987	      1.76702780	     14.95503495	     36.35516695	    -42.61740345	      1.04473599	    -17.31823188	      4.14487557	     14.80482787	     21.64273334	      9.53266647	    -31.08331028	      1.59214149	     -3.01747670
      0.82000000	     23.81900047	     -3.99828453	      0.62729010	     -0.12223392	      0.96399926	     -0.01335936	     -6.17604105	      4.49352310	    -24.30962454	      3.89223558	      1.37551282	     15.56667702	     36.17331445	    -42.96886957	      0.93778425	    -17.14742564	      4.03491142	     14.94846277	     21.33123657	      9.77633180	    -31.08054649	      1.63634282	     -3.06970778
      0.82500000	     23.79674993	     -3.99734160	      0.65418727	     -0.11645989	      0.96303152	     -0.01269967	     -6.15763121	      4.66422585	    -24.18773095	      4.40774751	      0.98258797	     15.98660362	     36.06210232	    -43.24253380	      0.86753302	    -17.04900393	      3.84662800	     15.15007469	     21.12695550	      9.90718497	    -31.04098096	      1.63774873	     -3.07367522
